PathFileType	4	(X/Y/Z)	/Users/itak/Documents/Research/Walk-IL/dataset/trc/00247_00009.trc
DataRate	CameraRate	NumFrames	NumMarkers	Units	OrigDataRate	OrigDataStartFrame	OrigNumFrames
100.000000	100.000000	4	53	mm	100.000000	523	598
Frame#	Time	RPSI			LPSI			L3			STRN			T10			C7			CLAV			RBAK			LBAK			LSHO			LUPA			LAEL			LAOL			LWTS			LWPS			LFRA			LIFD			LHPS			LHTS			RSHO			RUPA			RAEL			RAOL			RWTS			RWPS			RFRA			RIFD			RHTS			RHPS			RBHD			LFHD			RFHD			LBHD			LHIP			RHIP			RASI			LASI			LKNE			LTHI			LANK			LTIP			LTOE			LMT1			LMT5			LHEE			RKNE			RTHI			RANK			RTIP			RTOE			RMT1			RMT5			RHEE			
		X1	Y1	Z1	X2	Y2	Z2	X3	Y3	Z3	X4	Y4	Z4	X5	Y5	Z5	X6	Y6	Z6	X7	Y7	Z7	X8	Y8	Z8	X9	Y9	Z9	X10	Y10	Z10	X11	Y11	Z11	X12	Y12	Z12	X13	Y13	Z13	X14	Y14	Z14	X15	Y15	Z15	X16	Y16	Z16	X17	Y17	Z17	X18	Y18	Z18	X19	Y19	Z19	X20	Y20	Z20	X21	Y21	Z21	X22	Y22	Z22	X23	Y23	Z23	X24	Y24	Z24	X25	Y25	Z25	X26	Y26	Z26	X27	Y27	Z27	X28	Y28	Z28	X29	Y29	Z29	X30	Y30	Z30	X31	Y31	Z31	X32	Y32	Z32	X33	Y33	Z33	X34	Y34	Z34	X35	Y35	Z35	X36	Y36	Z36	X37	Y37	Z37	X38	Y38	Z38	X39	Y39	Z39	X40	Y40	Z40	X41	Y41	Z41	X42	Y42	Z42	X43	Y43	Z43	X44	Y44	Z44	X45	Y45	Z45	X46	Y46	Z46	X47	Y47	Z47	X48	Y48	Z48	X49	Y49	Z49	X50	Y50	Z50	X51	Y51	Z51	X52	Y52	Z52	X53	Y53	Z53	

524	5.23	-71.64508056640625	1043.578125	830.06103515625	48.38912963867188	1046.28955078125	816.4944458007812	-2.728240489959717	1125.485595703125	813.3707275390625	25.09345436096191	1316.703491210938	1058.51025390625	-17.53005790710449	1249.600463867188	811.7099609375	-10.84467601776123	1514.348510742188	865.180908203125	16.15915489196777	1433.071166992188	1030.2041015625	-94.11572265625	1370.6083984375	807.9707641601562	95.5518798828125	1476.604370117188	828.6668090820312	164.9483795166016	1479.635986328125	907.2720336914062	237.7931213378906	1360.844970703125	867.06005859375	271.0415649414062	1151.671752929688	879.8314819335938	208.7268981933594	1130.1650390625	822.2103881835938	239.4096984863281	934.09765625	1011.665344238281	309.2968139648438	910.5628051757812	968.9203491210938	290.720458984375	1047.287231445312	909.88818359375	244.9679412841797	742.7871704101562	1041.541381835938	309.4314270019531	825.908935546875	999.57177734375	268.5564575195312	838.417724609375	1053.300537109375	-167.7212371826172	1471.788696289062	952.4912719726562	-236.6478424072266	1406.151489257812	948.443115234375	-275.812744140625	1123.858154296875	952.5264282226562	-191.416748046875	1113.89990234375	909.3429565429688	-208.4224853515625	934.5846557617188	1113.641967773438	-278.7630004882812	909.7347412109375	1071.559814453125	-283.8122863769531	1059.117431640625	988.2520141601562	-192.3677368164062	748.0408935546875	1161.171875	-215.5692901611328	822.6458129882812	1175.0703125	-272.0508422851562	812.5567016601562	1129.723876953125	-48.74229431152344	1677.072631835938	916.5370483398438	55.27815246582031	1710.7626953125	1115.51708984375	-44.40021133422852	1707.046508789062	1119.816040039062	86.17833709716797	1685.341796875	955.75439453125	194.1551055908203	981.8348999023438	910.4154663085938	-173.3542022705078	1003.780334472656	947.8685302734375	-121.5307922363281	1047.847778320312	1030.2666015625	158.9628143310547	1034.24267578125	1007.210632324219	171.2390747070312	517.0067138671875	1063.806274414062	196.4063568115234	655.110595703125	1019.249877929688	171.7682189941406	43.33668518066406	927.239013671875	181.5218658447266	296.8359680175781	989.7219848632812	133.0286560058594	72.84185028076172	1138.39892578125	85.72020721435547	58.53009033203125	1075.817749023438	196.4941253662109	48.21778106689453	1051.522583007812	117.2088317871094	50.6177864074707	868.6761474609375	-103.6907272338867	519.3689575195312	1017.928649902344	-155.9424591064453	785.66162109375	1013.505981445312	-64.91249084472656	36.6629638671875	940.4696655273438	-78.09430694580078	398.7168579101562	1024.655639648438	-3.291508913040161	44.45074081420898	1148.508056640625	35.20717620849609	42.90743637084961	1088.27783203125	-81.65461730957031	37.35232162475586	1050.150390625	-11.3549222946167	36.15295791625977	874.0185546875	
525	5.24	-70.35587310791016	1043.5908203125	832.1534423828125	49.71038055419922	1046.397705078125	818.9603881835938	-1.46446430683136	1125.800537109375	815.6188354492188	25.92123413085938	1316.782470703125	1060.786376953125	-16.25594329833984	1249.948974609375	813.84521484375	-9.627595901489258	1514.578247070312	867.5433959960938	17.05359649658203	1433.207153320312	1032.557250976562	-92.92198944091797	1370.985107421875	810.1002197265625	96.8284912109375	1476.83935546875	831.1769409179688	166.1055450439453	1479.7734375	909.9109497070312	238.8815765380859	1360.947265625	869.792236328125	271.8677978515625	1151.686279296875	882.68017578125	209.6979675292969	1130.179443359375	824.88623046875	239.3583679199219	934.6124877929688	1015.074401855469	309.3814086914062	910.7278442382812	972.5730590820312	291.2631225585938	1047.3427734375	913.0657958984375	244.5153503417969	743.4335327148438	1045.842651367188	309.2568969726562	826.2110595703125	1003.604370117188	268.3378601074219	839.076171875	1057.16064453125	-166.6005554199219	1472.02783203125	954.5799560546875	-235.5841217041016	1406.38525390625	950.3806762695312	-274.6860046386719	1124.1103515625	953.91015625	-190.2696990966797	1114.252685546875	910.6859741210938	-207.5168914794922	933.7423095703125	1113.877563476562	-277.8421020507812	909.34130859375	1071.796264648438	-282.7283630371094	1059.281860351562	989.4013061523438	-191.5345001220703	746.85009765625	1160.068359375	-214.6444091796875	821.3707885742188	1174.504516601562	-271.1813354492188	811.7348022460938	1129.222290039062	-47.72882080078125	1677.218139648438	918.9574584960938	55.9911003112793	1710.85302734375	1118.084838867188	-43.6729850769043	1707.085083007812	1122.235229492188	87.14904022216797	1685.514404296875	958.3606567382812	195.4443664550781	982.2958984375	913.1390991210938	-172.3778991699219	1003.923767089844	949.5771484375	-120.8219909667969	1048.05126953125	1032.18115234375	159.6883087158203	1034.639282226562	1009.939453125	171.2164459228516	517.0739135742188	1065.17333984375	196.8987274169922	655.2242431640625	1021.088989257812	171.8308868408203	41.45172119140625	935.4835205078125	181.6596984863281	295.7168579101562	994.3603515625	130.4947204589844	72.74900817871094	1146.05810546875	83.8741455078125	58.06027603149414	1083.011108398438	194.964599609375	47.25151824951172	1060.09765625	117.9068756103516	48.40571212768555	876.296630859375	-103.2033843994141	519.213134765625	1018.672668457031	-155.2102203369141	785.6417236328125	1014.973205566406	-64.78136444091797	36.80241775512695	940.4760131835938	-77.85243225097656	398.5915832519531	1025.256591796875	-3.274872541427612	44.43288803100586	1148.515014648438	35.21466445922852	42.91671371459961	1088.299072265625	-81.66529846191406	37.38177108764648	1050.1298828125	-11.2998685836792	36.21229934692383	873.9730834960938	
526	5.25	-69.01639556884766	1043.582397460938	834.2289428710938	51.06462478637695	1046.444091796875	821.4400024414062	-0.1410583555698395	1126.026611328125	817.85546875	26.76484680175781	1316.837280273438	1063.005859375	-14.90986919403076	1250.235229492188	815.9432983398438	-8.348623275756836	1514.7451171875	869.8047485351562	17.96631050109863	1433.306518554688	1034.828979492188	-91.65135955810547	1371.290893554688	812.13037109375	98.17909240722656	1477.007080078125	833.6259765625	167.3183288574219	1479.855834960938	912.5094604492188	240.0471801757812	1360.996826171875	872.5236206054688	272.7705383300781	1151.649536132812	885.547607421875	210.7787475585938	1130.155883789062	827.5422973632812	239.3659057617188	934.9970703125	1018.378356933594	309.5315551757812	910.8082885742188	976.1453857421875	291.8764343261719	1047.338134765625	916.2269287109375	244.1249237060547	743.937744140625	1049.891357421875	309.1443786621094	826.4115600585938	1007.494445800781	268.1408081054688	839.5833129882812	1060.869262695312	-165.4402923583984	1472.231201171875	956.5314331054688	-234.4799652099609	1406.573608398438	952.167724609375	-273.5160522460938	1124.343505859375	955.1548461914062	-189.0855407714844	1114.590209960938	911.9031372070312	-206.6006774902344	932.8358764648438	1113.941650390625	-276.9082946777344	908.8966064453125	1071.84814453125	-281.6009521484375	1059.415649414062	990.417724609375	-190.7083282470703	745.5770874023438	1158.68798828125	-213.6893310546875	820.0089111328125	1173.728881835938	-270.3123779296875	810.8319702148438	1128.484741210938	-46.65019226074219	1677.344482421875	921.2861938476562	56.74176788330078	1710.862182617188	1120.589965820312	-42.92659759521484	1707.052001953125	1124.567993164062	88.1798095703125	1685.639526367188	960.9067993164062	196.7656555175781	982.6936645507812	915.8405151367188	-171.3721313476562	1004.044494628906	951.2750854492188	-120.0840530395508	1048.232177734375	1034.0849609375	160.4417877197266	1034.96728515625	1012.681884765625	171.2470855712891	517.0159301757812	1066.231201171875	197.4517059326172	655.2010498046875	1022.676940917969	171.7056274414062	39.84922790527344	942.8063354492188	181.6993560791016	294.5881958007812	998.4947509765625	128.1743316650391	71.88700866699219	1153.06689453125	82.13545989990234	57.14145278930664	1089.569091796875	193.4836120605469	46.06875991821289	1067.734619140625	118.2499465942383	46.58891296386719	883.1892700195312	-102.7119827270508	519.0545654296875	1019.423889160156	-154.4952850341797	785.6201171875	1016.426391601562	-64.67081451416016	36.9228630065918	940.4788818359375	-77.62924194335938	398.4530944824219	1025.895385742188	-3.273700475692749	44.40918350219727	1148.504516601562	35.20700073242188	42.91817855834961	1088.30615234375	-81.67848205566406	37.40973663330078	1050.10791015625	-11.24906444549561	36.26787185668945	873.938720703125	
527	5.26	-67.642333984375	1043.543579101562	836.3060913085938	52.44338607788086	1046.430419921875	823.9326782226562	1.242366075515747	1126.1513671875	820.0869750976562	27.61991119384766	1316.866455078125	1065.171630859375	-13.49042987823486	1250.447875976562	818.00634765625	-7.005176067352295	1514.845336914062	871.9613037109375	18.89474105834961	1433.364013671875	1037.01904296875	-90.29096221923828	1371.510498046875	814.0559692382812	99.60623168945312	1477.101196289062	836.0128784179688	168.5849609375	1479.879760742188	915.0667724609375	241.2924346923828	1360.986572265625	875.2566528320312	273.755859375	1151.555908203125	888.4432983398438	211.9730987548828	1130.094970703125	830.192138671875	239.4384613037109	935.234619140625	1021.582946777344	309.7486267089844	910.79541015625	979.6419067382812	292.5648193359375	1047.2646484375	919.3799438476562	243.7854919433594	744.2867431640625	1053.6787109375	309.0898132324219	826.4982299804688	1011.243408203125	267.9623107910156	839.9259033203125	1064.430908203125	-164.2505035400391	1472.389526367188	958.343017578125	-233.3332061767578	1406.70947265625	953.7960205078125	-272.302978515625	1124.53857421875	956.25244140625	-187.8666839599609	1114.897094726562	912.9927978515625	-205.6604919433594	931.8773803710938	1113.847412109375	-275.9713439941406	908.397216796875	1071.72265625	-280.439453125	1059.507446289062	991.3048706054688	-189.9009399414062	744.2313232421875	1157.068725585938	-212.7044067382812	818.5786743164062	1172.778076171875	-269.4539184570312	809.8561401367188	1127.544067382812	-45.50382232666016	1677.4423828125	923.516845703125	57.52944946289062	1710.791259765625	1123.028076171875	-42.15973663330078	1706.9521484375	1126.810546875	89.27225494384766	1685.714111328125	963.3878173828125	198.0925445556641	982.9971923828125	918.5347900390625	-170.3394317626953	1004.141967773438	952.9832153320312	-119.3194046020508	1048.39013671875	1035.998779296875	161.2234191894531	1035.210571289062	1015.434265136719	171.3148193359375	516.841064453125	1067.011352539062	198.0302124023438	655.0363159179688	1024.029907226562	171.4503784179688	38.58105850219727	949.1046752929688	181.6612854003906	293.4529418945312	1002.123474121094	126.1088485717773	70.14752960205078	1159.377807617188	80.54006958007812	55.71988296508789	1095.405883789062	192.1227569580078	44.68680191040039	1074.349243164062	118.2976608276367	45.21123886108398	889.24072265625	-102.2145843505859	518.9013061523438	1020.218933105469	-153.8116607666016	785.5831909179688	1017.876098632812	-64.58343505859375	37.01759338378906	940.4656982421875	-77.4107666015625	398.3017578125	1026.593872070312	-3.292940855026245	44.37763595581055	1148.472290039062	35.1909065246582	42.91485977172852	1088.3037109375	-81.69352722167969	37.43526840209961	1050.08447265625	-11.20071411132812	36.31673049926758	873.9188842773438	
